<?xml version="1.0" encoding="utf-8"?>
<!-- Generator: Adobe Illustrator 21.1.0, SVG Export Plug-In . SVG Version: 6.00 Build 0)  -->
<svg version="1.1" id="Layer_1" xmlns="http://www.w3.org/2000/svg" xmlns:xlink="http://www.w3.org/1999/xlink" x="0px" y="0px"
	 viewBox="0 0 216 54" style="enable-background:new 0 0 216 54;" xml:space="preserve">
<style type="text/css">
	.st0{fill:#0F2449;}
</style>
<g>
	<g>
		<g>
			<polygon class="st0" points="3.8,0.5 3.8,49.8 43.4,49.8 43.4,46.6 7,46.6 7,3.7 206.8,3.7 206.8,46.6 172.1,46.6 172.1,49.8 
				210,49.8 210,0.5 			"/>
		</g>
	</g>
	<g>
		<g>
			<g>
				<g>
					<path class="st0" d="M19.6,10.6h4.2v15.3l5.9-15.3H34l-6.2,15.3l6.7,16.3h-4.8l-5.9-16.3v16.3h-4.2V10.6z"/>
				</g>
			</g>
			<g>
				<g>
					<path class="st0" d="M57.7,10.6h13.8v3.7h-4.8v27.8h-4.2V14.3h-4.9V10.6z"/>
				</g>
				<g>
					<path class="st0" d="M73.9,10.6h11.3v3.6h-7v10h6.2v3.6h-6.2v10.8h7v3.6H73.9V10.6z"/>
				</g>
				<g>
					<path class="st0" d="M101.4,11.1v3.8c-1.1-0.5-2-0.8-2.7-0.8c-1,0-1.9,0.2-2.6,0.7c-0.7,0.5-1.3,1.3-1.8,2.3
						c-0.5,1-0.8,2.3-1,3.9c-0.2,1.6-0.3,3.5-0.3,5.6c0,7.8,2,11.7,6,11.7c0.7,0,1.5-0.2,2.5-0.7v3.9c-1,0.6-2.2,0.9-3.4,0.9
						c-6.4,0-9.6-5.2-9.6-15.6c0-5.6,0.8-9.8,2.3-12.6c1.6-2.7,3.9-4.1,7.2-4.1C99.1,10.2,100.3,10.5,101.4,11.1z"/>
				</g>
				<g>
					<path class="st0" d="M105,10.6h4.2v12.3h6.2V10.6h4.2v31.5h-4.2V26.5h-6.2v15.6H105V10.6z"/>
				</g>
			</g>
			<g>
				<g>
					<path class="st0" d="M137.2,10.6h4.3v24.2c0,2.5-0.4,4.2-1.1,5.3c-1.1,1.6-2.8,2.4-5.2,2.4c-1.4,0-2.6-0.3-3.6-0.8v-4.2
						c1.2,0.7,2.2,1.1,2.8,1.1c1.9,0,2.8-1.3,2.8-3.9v-1.3V10.6z"/>
				</g>
				<g>
					<path class="st0" d="M162.1,27.2c0,5.6-0.6,9.5-1.9,11.9c-1.2,2.3-3.3,3.5-6.2,3.5c-3.1,0-5.2-1.3-6.5-3.8
						c-1.2-2.5-1.9-6.8-1.9-13.1c0-5.6,0.6-9.6,1.8-11.9c1.2-2.3,3.3-3.5,6.3-3.5c2.6,0,4.6,0.9,5.9,2.7c0.8,1.2,1.5,2.9,1.8,5.2
						C161.9,20.2,162.1,23.2,162.1,27.2z M157.6,27.6c0-5.5-0.2-9.1-0.7-10.9c-0.5-1.8-1.5-2.7-3-2.7c-1.5,0-2.5,0.8-3,2.5
						c-0.5,1.7-0.7,5-0.7,10c0,4.6,0.3,7.8,0.8,9.6c0.5,1.7,1.5,2.5,3,2.5c1.4,0,2.4-0.8,2.9-2.4C157.4,34.7,157.6,31.8,157.6,27.6z
						"/>
				</g>
				<g>
					<path class="st0" d="M166.3,10.6h5.8c4.5,0,6.8,2.8,6.8,8.4c0,2.1-0.3,3.7-0.9,4.8c-0.6,1-1.6,1.8-3.1,2.3
						c1.7,0.7,2.9,1.6,3.5,2.6c0.6,1,1,2.6,1,4.7c0,5.8-2.5,8.7-7.4,8.7h-5.6V10.6z M170.3,24.5c1.6,0,2.8-0.4,3.4-1.1
						c0.6-0.8,1-2.2,1-4.2c0-3.4-1.2-5.1-3.7-5.1h-0.3h-0.2c-0.1,0-0.2,0-0.2,0V24.5z M170.3,38.5c1.7,0,2.9-0.4,3.6-1.1
						c0.7-0.7,1-2.1,1-4.1c0-2-0.3-3.4-1-4.2c-0.7-0.8-1.9-1.2-3.6-1.2V38.5z"/>
				</g>
				<g>
					<path class="st0" d="M194,11.3v4.1c-1.3-0.9-2.5-1.4-3.5-1.4c-1.1,0-2,0.4-2.7,1.2c-0.7,0.7-1.1,1.7-1.1,3c0,1.1,0.3,2,0.8,2.8
						c0.3,0.4,0.7,1,1.3,1.6c0.6,0.7,1.4,1.5,2.3,2.4c1.7,1.8,2.9,3.3,3.5,4.6c0.6,1.2,0.9,2.8,0.9,4.6c0,2.4-0.7,4.4-2.1,6
						c-1.4,1.5-3.1,2.3-5.3,2.3c-1.8,0-3.4-0.5-4.6-1.5v-4.2c1.5,1.1,2.9,1.7,4.1,1.7c1.2,0,2.1-0.4,2.7-1.2c0.7-0.8,1-1.8,1-3.1
						c0-1.1-0.3-2.2-0.8-3.1c-0.3-0.4-0.6-0.9-1.1-1.5c-0.5-0.6-1-1.2-1.7-1.9c-1.1-1.1-2-2-2.7-2.8c-0.7-0.8-1.2-1.5-1.6-2.1
						c-0.7-1.2-1-2.7-1-4.5c0-2.5,0.6-4.4,1.9-5.9c1.3-1.5,3-2.2,5.2-2.2C191.2,10.2,192.6,10.5,194,11.3z"/>
				</g>
			</g>
			<g>
				<g>
					<path class="st0" d="M35.6,10.8h3.6l1.7,5.5c0.1,0.2,0.1,0.3,0.2,0.5c0.1,0.2,0.1,0.4,0.2,0.6c0.6,2,1,3.6,1.3,5
						c0.2-1.3,0.4-2.3,0.5-2.8l0.5-2.2l0.2-0.9l1.4-5.7h3.5L44.2,25v10.8h-3.4V25L35.6,10.8z"/>
				</g>
			</g>
		</g>
		<g>
			<g>
				<rect x="36.4" y="37.4" class="st0" width="12.2" height="3.2"/>
			</g>
		</g>
	</g>
	<g>
		<g>
			<path class="st0" d="M71.3,47.6c-0.6-0.7-1.4-1.1-2.3-1.1c-1.7,0-3.1,1.4-3.1,3.1c0,2,1.7,3.1,3.1,3.1c0.7,0,1.6-0.3,2.3-1v0.6
				c-0.7,0.6-1.5,0.8-2.3,0.8c-2,0-3.6-1.6-3.6-3.5c0-2,1.6-3.5,3.5-3.5c1.3,0,2.1,0.7,2.3,0.9V47.6z"/>
		</g>
		<g>
			<path class="st0" d="M76.1,50.7h-2.9L72.3,53h-0.5l2.9-7l2.8,7H77L76.1,50.7z M76,50.3l-1.3-3.2l-1.3,3.2H76z"/>
		</g>
		<g>
			<path class="st0" d="M81.5,53l-2.2-3.2H79V53h-0.4v-6.8h1c0.5,0,1,0,1.4,0.3c0.5,0.4,0.7,0.9,0.7,1.5c0,0.7-0.3,1.4-1.1,1.7
				c-0.4,0.1-0.7,0.1-0.8,0.1L82,53H81.5z M79,49.4h0.7c1,0,1.6-0.5,1.6-1.4c0-0.7-0.3-1-0.6-1.2c-0.3-0.2-0.8-0.2-1-0.2H79V49.4z"
				/>
		</g>
		<g>
			<path class="st0" d="M86.6,46.6h-2.8V49h2.8v0.4h-2.8v3.1h2.8V53h-3.3v-6.8h3.3V46.6z"/>
		</g>
		<g>
			<path class="st0" d="M91.4,46.6h-2.8V49h2.8v0.4h-2.8v3.1h2.8V53h-3.3v-6.8h3.3V46.6z"/>
		</g>
		<g>
			<path class="st0" d="M95.7,53l-2.2-3.2h-0.2V53h-0.4v-6.8h1c0.5,0,1,0,1.4,0.3c0.5,0.4,0.7,0.9,0.7,1.5c0,0.7-0.3,1.4-1.1,1.7
				c-0.4,0.1-0.7,0.1-0.8,0.1l2.2,3.2H95.7z M93.3,49.4H94c1,0,1.6-0.5,1.6-1.4c0-0.7-0.3-1-0.6-1.2c-0.3-0.2-0.8-0.2-1-0.2h-0.6
				V49.4z"/>
		</g>
		<g>
			<path class="st0" d="M100.8,47.3c-0.4-0.8-1.2-0.8-1.3-0.8c-0.8,0-1.3,0.6-1.3,1.3c0,0.7,0.5,1,1.2,1.3c0.7,0.3,1,0.5,1.4,0.7
				c0.3,0.2,0.7,0.6,0.7,1.3c0,1.1-1,2-2.1,2c-0.9,0-1.3-0.4-1.6-0.7c-0.3-0.3-0.4-0.6-0.4-0.7l0.4-0.2c0.1,0.3,0.3,0.5,0.4,0.7
				c0.3,0.4,0.8,0.6,1.3,0.6c0.9,0,1.6-0.7,1.6-1.6c0-0.4-0.1-0.8-0.7-1.1c-0.2-0.1-0.6-0.3-1.2-0.6c-0.7-0.3-1-0.5-1.2-0.9
				c-0.2-0.3-0.2-0.5-0.2-0.8c0-0.8,0.5-1.7,1.7-1.7c0.7,0,1.3,0.3,1.7,1L100.8,47.3z"/>
		</g>
		<g>
			<path class="st0" d="M108.4,47.3c-0.4-0.8-1.2-0.8-1.3-0.8c-0.8,0-1.3,0.6-1.3,1.3c0,0.7,0.5,1,1.2,1.3c0.7,0.3,1,0.5,1.4,0.7
				c0.3,0.2,0.7,0.6,0.7,1.3c0,1.1-1,2-2.1,2c-0.9,0-1.3-0.4-1.6-0.7c-0.3-0.3-0.4-0.6-0.4-0.7l0.4-0.2c0.1,0.3,0.3,0.5,0.4,0.7
				c0.3,0.4,0.8,0.6,1.3,0.6c0.9,0,1.6-0.7,1.6-1.6c0-0.4-0.1-0.8-0.7-1.1c-0.2-0.1-0.6-0.3-1.2-0.6c-0.7-0.3-1-0.5-1.2-0.9
				c-0.2-0.3-0.2-0.5-0.2-0.8c0-0.8,0.5-1.7,1.7-1.7c0.7,0,1.3,0.3,1.7,1L108.4,47.3z"/>
		</g>
		<g>
			<path class="st0" d="M111,46.2V53h-0.4v-6.8H111z"/>
		</g>
		<g>
			<path class="st0" d="M112.8,53l0.8-7.1l3,6.3l3-6.3l0.8,7.1h-0.4l-0.6-5.5c0,0-2.7,5.7-2.7,5.7l-2.7-5.7l-0.6,5.5H112.8z"/>
		</g>
		<g>
			<path class="st0" d="M122.4,49.7V53H122v-6.8h1.3c1.1,0,2,0.6,2,1.8c0,1.1-0.8,1.8-2,1.8H122.4z M122.4,49.3h0.9
				c0.9,0,1.5-0.5,1.5-1.4c0-0.8-0.6-1.4-1.6-1.4h-0.8V49.3z"/>
		</g>
		<g>
			<path class="st0" d="M127,46.2v6.4h1.9V53h-2.4v-6.8H127z"/>
		</g>
		<g>
			<path class="st0" d="M130.4,46.2V53H130v-6.8H130.4z"/>
		</g>
		<g>
			<path class="st0" d="M135,46.6h-2.3V49h2.2v0.4h-2.2V53h-0.4v-6.8h2.8V46.6z"/>
		</g>
		<g>
			<path class="st0" d="M136.9,46.2V53h-0.4v-6.8H136.9z"/>
		</g>
		<g>
			<path class="st0" d="M142,46.6h-2.8V49h2.8v0.4h-2.8v3.1h2.8V53h-3.3v-6.8h3.3V46.6z"/>
		</g>
		<g>
			<path class="st0" d="M143.4,53v-6.8h1.3c0.6,0,1.7,0.1,2.5,1c0.7,0.7,1,1.7,1,2.5c0,0.7-0.3,1.7-1,2.5c-0.9,0.9-1.9,1-2.5,1
				H143.4z M143.9,52.6h0.9c1.8,0,3-1.2,3-3c0-1.7-1.2-3-3-3h-0.9V52.6z"/>
		</g>
	</g>
</g>
</svg>
